<?xml version="1.0" encoding="UTF-8"?>
<level>
  <owner>Fistachka</owner>
  <repo>snegurochka</repo>
  <version>v1.0.6</version>
  <next number="1" owner="Fistachka" repo="snegurochka2"/>
  <readme>
    <ru>683d166d7182ceb5d2c40a1831f8a675dd08b140fb8224e3d9d958f2396d8561</ru>
    <en>1671038695a65dd2e1afc43d2cfee514028d8b0741564594c5752b7fb1807159</en>
  </readme>
  <license>b1b99f5538d1fd3702219bff50c665196dfa42f6ee755c37fe41a6178d6bc6e5</license>
  <exercise number="1">
    <scale>major</scale>
    <bpm>148</bpm>
    <lowestNote>6</lowestNote>
    <tonalities>4</tonalities>
    <video name="1t.mp4" size="1587564" type="video/mp4" volume="0.5">f08e59e5f9fed12c1e826c9101259aae1406b802752638654c610551fb5fb375</video>
    <notes>
      <note number="1" values="38" ticks="700" durationTicks="31" ppq="96" velocity="0.789"/>
      <note number="2" values="38" ticks="750" durationTicks="43" ppq="96" velocity="0.729"/>
      <note number="3" values="58" ticks="797" durationTicks="31" ppq="96" velocity="0.794"/>
      <note number="4" values="58" ticks="844" durationTicks="34" ppq="96" velocity="0.758"/>
      <note number="5" values="58" ticks="894" durationTicks="93" ppq="96" velocity="0.712"/>
      <note number="6" values="48" ticks="988" durationTicks="32" ppq="96" velocity="0.8"/>
      <note number="7" values="48" ticks="1037" durationTicks="54" ppq="96" velocity="0.8"/>
    </notes>
  </exercise>
  <exercise number="2">
    <scale>major</scale>
    <bpm>148</bpm>
    <lowestNote>6</lowestNote>
    <tonalities>4</tonalities>
    <video name="2.mp4" size="1301392" type="video/mp4" volume="0.5">62f0994c8ac64e8c2942bdd00fe2e3911d82c9864a0e2c75c888a57918654cc6</video>
    <notes>
      <note number="1" values="68" ticks="124" durationTicks="143" ppq="96" velocity="0.837"/>
      <note number="2" values="68" ticks="291" durationTicks="158" ppq="96" velocity="0.804"/>
      <note number="3" values="68" ticks="478" durationTicks="153" ppq="96" velocity="0.837"/>
    </notes>
  </exercise>
  <exercise number="3">
    <scale>major</scale>
    <bpm>148</bpm>
    <lowestNote>6</lowestNote>
    <tonalities>4</tonalities>
    <video name="3.mp4" size="1388433" type="video/mp4" volume="0.5">1b393d24919072e1e4a3f9d7bd3a31a669bc9a7c7ea1da04a2b7f1a2c08d793c</video>
    <notes>
      <note number="1" values="48" ticks="69" durationTicks="72" ppq="96" velocity="0.812"/>
      <note number="2" values="48" ticks="168" durationTicks="68" ppq="96" velocity="0.769"/>
      <note number="3" values="48" ticks="263" durationTicks="143" ppq="96" velocity="0.817"/>
      <note number="4" values="48" ticks="429" durationTicks="75" ppq="96" velocity="0.812"/>
      <note number="5" values="48" ticks="520" durationTicks="69" ppq="96" velocity="0.744"/>
      <note number="6" values="48" ticks="602" durationTicks="96" ppq="96" velocity="0.822"/>
      <note number="7" values="48" ticks="576" durationTicks="95" ppq="96" velocity="0.822"/>
    </notes>
  </exercise>
  <exercise number="4">
    <scale>major</scale>
    <bpm>148</bpm>
    <lowestNote>6</lowestNote>
    <tonalities>4</tonalities>
    <video name="4.mp4" size="1345005" type="video/mp4" volume="0.5">00efcf664b71c7202b568749b56941433c6e8385b8b4e183d6965e34071eafb8</video>
    <notes>
      <note number="1" values="58" ticks="100" durationTicks="93" ppq="96" velocity="0.824"/>
      <note number="2" values="58" ticks="304" durationTicks="143" ppq="96" velocity="0.792"/>
      <note number="3" values="58" ticks="501" durationTicks="164" ppq="96" velocity="0.819"/>
    </notes>
  </exercise>
  <exercise number="5">
    <scale>major</scale>
    <bpm>148</bpm>
    <lowestNote>6</lowestNote>
    <tonalities>4</tonalities>
    <video name="5.mp4" size="1674127" type="video/mp4" volume="0.5">a4a58476fbd33b201cc98a92e8d9dcbbfd11018b855c51b6a905e60db7983d04</video>
    <notes>
      <note number="1" values="38" ticks="75" durationTicks="69" ppq="96" velocity="0.809"/>
      <note number="2" values="38" ticks="166" durationTicks="68" ppq="96" velocity="0.772"/>
      <note number="3" values="38" ticks="254" durationTicks="96" ppq="96" velocity="0.809"/>
      <note number="4" values="38" ticks="437" durationTicks="71" ppq="96" velocity="0.801"/>
      <note number="5" values="38" ticks="526" durationTicks="70" ppq="96" velocity="0.756"/>
      <note number="6" values="38" ticks="613" durationTicks="121" ppq="96" velocity="0.811"/>
      <note number="7" values="38" ticks="576" durationTicks="95" ppq="96" velocity="0.811"/>
    </notes>
  </exercise>
  <exercise number="6">
    <scale>major</scale>
    <bpm>148</bpm>
    <lowestNote>6</lowestNote>
    <tonalities>4</tonalities>
    <video name="6.mp4" size="1354566" type="video/mp4" volume="0.5">ce1f0ffefc660bd9330f78559fbf39156819d6ddd2e5ad54d62c1f066b6aabf6</video>
    <notes>
      <note number="1" values="48" ticks="91" durationTicks="72" ppq="96" velocity="0.824"/>
      <note number="2" values="48" ticks="187" durationTicks="68" ppq="96" velocity="0.799"/>
      <note number="3" values="48" ticks="286" durationTicks="71" ppq="96" velocity="0.827"/>
    </notes>
  </exercise>
  <exercise number="7">
    <scale>major</scale>
    <bpm>148</bpm>
    <lowestNote>4</lowestNote>
    <tonalities>4</tonalities>
    <video name="7.mp4" size="1393963" type="video/mp4" volume="0.5">f8c46477977b1ec28a0e39523e7a1b029bc8f35caf3d7b9483b9374b1302b72b</video>
    <notes>
      <note number="1" values="6" ticks="29" durationTicks="28" ppq="96" velocity="0.794"/>
      <note number="2" values="7" ticks="78" durationTicks="33" ppq="96" velocity="0.772"/>
      <note number="3" values="18" ticks="130" durationTicks="51" ppq="96" velocity="0.817"/>
      <note number="4" values="28" ticks="204" durationTicks="26" ppq="96" velocity="0.794"/>
      <note number="5" values="4" ticks="243" durationTicks="28" ppq="96" velocity="0.774"/>
      <note number="6" values="4" ticks="289" durationTicks="90" ppq="96" velocity="0.817"/>
      <note number="7" values="48" ticks="576" durationTicks="95" ppq="96" velocity="0.817"/>
    </notes>
  </exercise>
  <exercise number="8">
    <scale>major</scale>
    <bpm>148</bpm>
    <lowestNote>4</lowestNote>
    <tonalities>4</tonalities>
    <video name="8.mp4" size="936246" type="video/mp4" volume="0.5">4c7f298103d48e6d340be2683a0b995d9bea0c077ed52f91a0e7b1d772af21af</video>
    <notes>
      <note number="1" values="38" ticks="58" durationTicks="73" ppq="96" velocity="0.829"/>
      <note number="2" values="28" ticks="154" durationTicks="71" ppq="96" velocity="0.782"/>
      <note number="3" values="18" ticks="250" durationTicks="74" ppq="96" velocity="0.819"/>
    </notes>
  </exercise>
  <exercise number="9">
    <scale>minor</scale>
    <cadenceVariant>harmonic</cadenceVariant>
    <bpm>147</bpm>
    <lowestNote>6</lowestNote>
    <tonalities>8</tonalities>
    <video name="9.mp4" size="2365060" type="video/mp4" volume="0.5">9d5c7389dc1f4e5c5f0673593bead967b47a41ed9008358636185dad8626422b</video>
    <notes>
      <note number="1" values="58" ticks="35" durationTicks="30" ppq="96" velocity="0.787"/>
      <note number="2" values="58" ticks="83" durationTicks="32" ppq="96" velocity="0.724"/>
      <note number="3" values="58" ticks="131" durationTicks="72" ppq="96" velocity="0.787"/>
      <note number="4" values="58" ticks="222" durationTicks="36" ppq="96" velocity="0.756"/>
      <note number="5" values="58" ticks="270" durationTicks="37" ppq="96" velocity="0.8"/>
      <note number="6" values="58" ticks="315" durationTicks="96" ppq="96" velocity="0.8"/>
    </notes>
  </exercise>
  <exercise number="10">
    <scale>minor</scale>
    <cadenceVariant>harmonic</cadenceVariant>
    <bpm>155</bpm>
    <lowestNote>6</lowestNote>
    <tonalities>8</tonalities>
    <video name="10t.mp4" size="1469296" type="video/mp4" volume="0.5">ba97b2c2f0153d8e5b6de449c53952a77f0ce207cbbb2a4aa54b4d8d0d6cb32a</video>
    <notes>
      <note number="1" values="68" ticks="56" durationTicks="73" ppq="96" velocity="0.835"/>
      <note number="2" values="68" ticks="146" durationTicks="75" ppq="96" velocity="0.803"/>
      <note number="3" values="68" ticks="246" durationTicks="76" ppq="96" velocity="0.8"/>
      <note number="4" values="68" ticks="340" durationTicks="31" ppq="96" velocity="0.8"/>
      <note number="5" values="68" ticks="386" durationTicks="50" ppq="96" velocity="0.8"/>
    </notes>
  </exercise>
  <exercise number="11">
    <scale>minor</scale>
    <cadenceVariant>harmonic</cadenceVariant>
    <bpm>155</bpm>
    <lowestNote>6</lowestNote>
    <tonalities>8</tonalities>
    <video name="11.mp4" size="1906650" type="video/mp4" volume="0.5">71c613bef0f1196b2bc6c16eb455e1fe34a6e69d5742e41504efb62728968f40</video>
    <notes>
      <note number="1" values="48" ticks="25" durationTicks="36" ppq="96" velocity="0.811"/>
      <note number="2" values="48" ticks="73" durationTicks="34" ppq="96" velocity="0.764"/>
      <note number="3" values="48" ticks="121" durationTicks="65" ppq="96" velocity="0.811"/>
      <note number="4" values="48" ticks="206" durationTicks="30" ppq="96" velocity="0.811"/>
    </notes>
  </exercise>
  <exercise number="12">
    <scale>minor</scale>
    <cadenceVariant>harmonic</cadenceVariant>
    <bpm>165</bpm>
    <lowestNote>6</lowestNote>
    <tonalities>8</tonalities>
    <video name="12.mp4" size="1344342" type="video/mp4" volume="0.5">75ff7c15816ec499af883a00b5b6cec5d6b90ff595045d7a251ded5931075586</video>
    <notes>
      <note number="1" values="58" ticks="30" durationTicks="73" ppq="96" velocity="0.835"/>
      <note number="2" values="58" ticks="120" durationTicks="75" ppq="96" velocity="0.795"/>
      <note number="3" values="58" ticks="220" durationTicks="76" ppq="96" velocity="0.795"/>
      <note number="4" values="58" ticks="314" durationTicks="31" ppq="96" velocity="0.795"/>
    </notes>
  </exercise>
  <exercise number="13">
    <scale>minor</scale>
    <cadenceVariant>harmonic</cadenceVariant>
    <bpm>167</bpm>
    <lowestNote>6</lowestNote>
    <tonalities>8</tonalities>
    <video name="13.mp4" size="1616865" type="video/mp4" volume="0.5">56526a336bc9109b2f051e658ba9f7f476e15579c62bc4800c4b59dc5ae5ab42</video>
    <notes>
      <note number="1" values="38" ticks="27" durationTicks="36" ppq="96" velocity="0.803"/>
      <note number="2" values="38" ticks="75" durationTicks="34" ppq="96" velocity="0.764"/>
      <note number="3" values="38" ticks="123" durationTicks="65" ppq="96" velocity="0.803"/>
      <note number="4" values="38" ticks="208" durationTicks="30" ppq="96" velocity="0.803"/>
      <note number="5" values="38" ticks="257" durationTicks="28" ppq="96" velocity="0.795"/>
      <note number="6" values="38" ticks="300" durationTicks="65" ppq="96" velocity="0.795"/>
      <note number="7" values="38" ticks="576" durationTicks="95" ppq="96" velocity="0.795"/>
    </notes>
  </exercise>
</level>
